<?xml version="1.0" encoding="UTF-8" standalone="no"?>
<!--Generated by Intaglio, www.PurgatoryDesign.com-->

<svg
   xmlns:dc="http://purl.org/dc/elements/1.1/"
   xmlns:cc="http://creativecommons.org/ns#"
   xmlns:rdf="http://www.w3.org/1999/02/22-rdf-syntax-ns#"
   xmlns:svg="http://www.w3.org/2000/svg"
   xmlns="http://www.w3.org/2000/svg"
   xmlns:xlink="http://www.w3.org/1999/xlink"
   xmlns:sodipodi="http://sodipodi.sourceforge.net/DTD/sodipodi-0.dtd"
   xmlns:inkscape="http://www.inkscape.org/namespaces/inkscape"
   version="1.1"
   viewBox="34,37,1083,730"
   id="svg3118"
   inkscape:version="0.48.2 r9819"
   width="100%"
   height="100%"
   sodipodi:docname="Katabatic-wind_fr.svg">
  <metadata
     id="metadata3241">
    <rdf:RDF>
      <cc:Work
         rdf:about="">
        <dc:format>image/svg+xml</dc:format>
        <dc:type
           rdf:resource="http://purl.org/dc/dcmitype/StillImage" />
      </cc:Work>
    </rdf:RDF>
  </metadata>
  <sodipodi:namedview
     pagecolor="#ffffff"
     bordercolor="#666666"
     borderopacity="1"
     objecttolerance="10"
     gridtolerance="10"
     guidetolerance="10"
     inkscape:pageopacity="0"
     inkscape:pageshadow="2"
     inkscape:window-width="1267"
     inkscape:window-height="902"
     id="namedview3239"
     showgrid="false"
     inkscape:zoom="0.70710678"
     inkscape:cx="541.5"
     inkscape:cy="353.85955"
     inkscape:window-x="0"
     inkscape:window-y="0"
     inkscape:window-maximized="0"
     inkscape:current-layer="svg3118" />
  <defs
     id="defs3120">
    <linearGradient
       id="503bf40"
       gradientUnits="userSpaceOnUse">
      <stop
         stop-color="#fff"
         offset="0"
         id="stop3123" />
      <stop
         stop-color="#0000fd"
         offset="1"
         id="stop3125" />
    </linearGradient>
    <path
       id="arrow 11"
       d="m2-3-2 3 2 3h-10l-2-3 2-3" />
    <path
       id="arrow 1"
       fill="none"
       d="m-8-3 8 3-8 3" />
  </defs>
  <linearGradient
     id="503f840"
     y2="504.24"
     gradientUnits="userSpaceOnUse"
     x2="583.99"
     y1="13.726"
     x1="572.9">
    <stop
       stop-color="#fff"
       offset="0"
       id="stop3130" />
    <stop
       stop-color="#afb2b5"
       offset=".88983"
       id="stop3132" />
    <stop
       stop-color="#f3f8ff"
       offset="1"
       id="stop3134" />
  </linearGradient>
  <path
     d="m35 37h1078.8l2.2 455.72-1079.9 12.4z"
     fill="url(#503f840)"
     id="path3136" />
  <linearGradient
     id="503f720"
     y2="713.51"
     gradientUnits="userSpaceOnUse"
     x2="189.3"
     y1="508.26"
     x1="186.92">
    <stop
       stop-color="#c3f6d8"
       offset="0"
       id="stop3139" />
    <stop
       stop-color="#293b5b"
       offset="1"
       id="stop3141" />
  </linearGradient>
  <path
     d="m36 502.21l799-5.21-.57 269.13-798.43.87z"
     fill="url(#503f720)"
     id="path3143" />
  <linearGradient
     id="503f640"
     y2="754.21"
     gradientUnits="userSpaceOnUse"
     x2="787.71"
     y1="648.53"
     x1="756.82">
    <stop
       stop-color="#c0c67c"
       offset="0"
       id="stop3146" />
    <stop
       stop-color="#ab6a53"
       offset="1"
       id="stop3148" />
  </linearGradient>
  <path
     d="m1115.6 586.71s-53.1-18-148.27-4.66c-135.69 19.02-153.62 40.31-242.91 70.85-17.48 5.98-27.49 13.34-45.54 17.98-100.07 25.69-172.53 21.69-275.81 35.96-70.8 9.77-171.25 8-239.11 27.49-39.14 11.25-77.212 31.85-77.212 31.85l1029.3.82"
     fill="url(#503f640)"
     id="path3150" />
  <linearGradient
     id="503f490"
     y2="629.52"
     gradientUnits="userSpaceOnUse"
     x2="987.69"
     y1="194.46"
     x1="980.56">
    <stop
       stop-color="#fff"
       offset="0"
       id="stop3153" />
    <stop
       stop-color="#5468b5"
       offset="1"
       id="stop3155" />
  </linearGradient>
  <path
     d="m1116 159.6l-14.3.44c-81.5 3.29-142.46 17.53-216.26 50.16-79.89 35.32-130.08 132.04-195.44 188.8-38 33-93.29 55.63-175 60-84.11 4.5-197.39 17.7-197.39 17.7l1.19 67.46s94.05 1.34 169.7 6.46c78.61 5.32 174.79 6.62 238.5 30.38 113.14 42.19 116.36 59.28 210.35 69.92 60.91 6.9 83.65 29.66 139.45 5.75 19.6-8.39 18.1.22 39.2-3.64"
     id="path3157"
     stroke-width="1.25"
     stroke="#182966"
     fill="url(#503f490)" />
  <linearGradient
     id="503f100"
     y2="511.19"
     xlink:href="#503bf40"
     x2="114.45"
     y1="491.99"
     x1="114.45" />
  <path
     stroke="#1709ff"
     stroke-width=".5"
     d="m93.065 501.49c0-1.34.547-2.43 1.222-2.43h28.443c.68 0 1.23 1.09 1.23 2.43v7.27c0 1.34-.55 2.43-1.23 2.43h-28.443c-.675 0-1.222-1.09-1.222-2.43z"
     fill="url(#503f100)"
     id="path3160" />
  <text
     font-size="36"
     xml:space="preserve"
     transform="matrix(1.1881,0,0,1.2124,150.09,478.45)"
     id="text3162"
     style="font-size:36px;fill:#182966;font-family:Times Bold"><tspan
       id="tspan3164">Polynie</tspan></text>
  <text
     font-size="30"
     xml:space="preserve"
     transform="matrix(1.1881,0,0,1.2124,701.05,162.39)"
     id="text3166"
     style="font-size:30px;fill:#00008f;font-family:Times Italic"><tspan
       id="tspan3168">Air froid</tspan></text>
  <linearGradient
     id="503eb20"
     y2="508.76"
     xlink:href="#503bf40"
     x2="155.03"
     y1="495.32"
     x1="155.03" />
  <path
     stroke="#1709ff"
     stroke-width=".5"
     d="m139.4 501.97c0-.93.4-1.69.89-1.69h20.79c.49 0 .89.76.89 1.69v5.09c0 .94-.40 1.7-.89 1.7h-20.79c-.49 0-.89-.76-.89-1.7z"
     fill="url(#503eb20)"
     id="path3171" />
  <linearGradient
     id="503e960"
     y2="508.76"
     xlink:href="#503bf40"
     x2="173.31"
     y1="495.32"
     x1="173.31" />
  <path
     stroke="#1709ff"
     stroke-width=".5"
     d="m166.73 501.97c0-.93.16-1.69.37-1.69h8.75c.21 0 .38.76.38 1.69v5.09c0 .94-.17 1.7-.38 1.7h-8.75c-.21 0-.37-.76-.37-1.7z"
     fill="url(#503e960)"
     id="path3174" />
  <text
     font-size="24"
     xml:space="preserve"
     transform="matrix(1.1881,0,0,1.2124,382.75,516.76)"
     id="text3184"
     style="font-size:24px;fill:#5468b5;font-family:Times Bold"><tspan
       id="tspan3186">Banquise</tspan></text>
  <text
     font-size="24"
     xml:space="preserve"
     transform="matrix(1.1881,0,0,1.2124,91.009,548.13)"
     id="text3188"
     style="font-size:24px;fill:#5468b5;font-family:Times Bold"><tspan
       id="tspan3190">Glace de mer</tspan></text>
  <text
     font-size="30"
     xml:space="preserve"
     transform="matrix(1.1881,0,0,1.2124,340.78,357.62)"
     id="text3192"
     style="font-size:30px;fill:#1709ff;font-family:Times Bold"><tspan
       id="tspan3194">Vent catabatique</tspan></text>
  <text
     font-size="30"
     font-family="Times Bold"
     xml:space="preserve"
     transform="matrix(1.1881 0 0 1.2124 772.65 734.69)"
     fill="#f4fd9c"
     id="text3196"><tspan
       id="tspan3198">Continent</tspan></text>
  <text
     font-size="30"
     xml:space="preserve"
     transform="matrix(1.1881,0,0,1.2124,156.86,646.46)"
     id="text3206"
     style="font-size:30px;fill:#182966;font-family:Times Bold"><tspan
       id="tspan3208">Océan</tspan></text>
  <path
     stroke="#1709ff"
     stroke-width="22"
     d="m1045 118c-120 27-197.9 52.11-268 120-47.82 46.31-104.96 138.39-181 159-52.7 14.28-176 21-176 21"
     fill="none"
     id="path3210" />
  <use
     xlink:href="#arrow 11"
     transform="matrix(6.0976 -1.372 1.372 6.0976 1045 118)"
     fill="#1709ff"
     id="use3212" />
  <use
     stroke-width="3.52"
     stroke="#1709ff"
     xlink:href="#arrow 1"
     transform="matrix(-6.2408 .33996 -.33996 -6.2408 420 418)"
     id="use3214" />
  <text
     font-size="30"
     xml:space="preserve"
     transform="matrix(1.1881,0,0,1.2124,153.05,161.39)"
     id="text3216"
     style="font-size:30px;fill:#00008f;font-family:Times Italic"><tspan
       id="tspan3218">Air plus chaud</tspan></text>
  <linearGradient
     id="503cc40"
     y2="511.19"
     xlink:href="#503bf40"
     x2="72.969"
     y1="491.99"
     x1="72.969" />
  <path
     stroke="#1709ff"
     stroke-width=".5"
     d="m37 501.49c0-1.34.920-2.43 2.055-2.43h47.845c1.135 0 2.055 1.09 2.055 2.43v7.27c0 1.34-.920 2.43-2.055 2.43h-47.845c-1.135 0-2.055-1.09-2.055-2.43z"
     fill="url(#503cc40)"
     id="path3221" />
  <path
     stroke="#fff"
     stroke-width="37"
     d="m467.73 248.53l275.63-1.21"
     fill="none"
     id="path3223" />
  <use
     stroke-width="3.7"
     stroke="#fff"
     xlink:href="#arrow 1"
     transform="matrix(-9.9999 .044080 -.044080 -9.9999 467.73 248.53)"
     id="use3225" />
  <text
     font-size="24"
     xml:space="preserve"
     transform="matrix(1.1881,0,0,1.2124,461.79,256.11)"
     id="text3227"
     style="font-size:24px;fill:#1a6ca4;font-family:Times Roman"><tspan
       id="tspan3229">Gradient de pression</tspan></text>
  <path
     d="M 764.91,513.6179 767.15,273.43"
     id="path3231"
     inkscape:connector-curvature="0"
     style="fill:none;stroke:#ffffff;stroke-width:34.95329666" />
  <use
     stroke-width="3.7"
     stroke="#fff"
     xlink:href="#arrow 1"
     transform="matrix(-.083092 9.9996 -9.9996 -.083092 764.91 542.57)"
     id="use3233" />
  <text
     font-size="24"
     xml:space="preserve"
     transform="matrix(0.01269807,-0.97550151,1.0249564,0.01208534,0,0)"
     id="text3235"
     style="font-size:34.90705109px;fill:#1a6ca4;font-family:Times Roman"
     x="-408.40854"
     y="764.9256"><tspan
       id="tspan3237">Gravité</tspan></text>
  <text
     xml:space="preserve"
     style="font-size:26.67533875px;font-style:normal;font-weight:normal;line-height:125%;letter-spacing:0px;word-spacing:0px;fill:#000000;fill-opacity:1;stroke:none;font-family:Times New Roman;-inkscape-font-specification:Times New Roman"
     x="990.883"
     y="317.78415"
     id="text3243"
     sodipodi:linespacing="125%"
     transform="scale(0.85488325,1.1697504)"><tspan
       sodipodi:role="line"
       id="tspan3245"
       x="990.883"
       y="317.78415"
       style="font-size:48px;font-style:italic;font-weight:normal;-inkscape-font-specification:'Times New Roman, Italic'">      Calotte</tspan><tspan
       sodipodi:role="line"
       x="990.883"
       y="377.78415"
       id="tspan3247"
       style="font-size:48px;font-style:italic;font-weight:normal;-inkscape-font-specification:'Times New Roman, Italic'">     polaire</tspan><tspan
       sodipodi:role="line"
       x="990.883"
       y="437.78415"
       style="font-size:48px;font-style:italic;font-weight:normal;-inkscape-font-specification:'Times New Roman, Italic'"
       id="tspan3259">   antarctique</tspan><tspan
       sodipodi:role="line"
       x="990.883"
       y="480.31903"
       id="tspan3249">(épaisseur max. : 4 776 m)</tspan></text>
  <text
     xml:space="preserve"
     style="font-size:25.44909477px;font-style:normal;font-weight:normal;line-height:125%;letter-spacing:0px;word-spacing:0px;fill:#000000;fill-opacity:1;stroke:none;font-family:Times New Roman;-inkscape-font-specification:Times New Roman"
     x="943.7251"
     y="203.04535"
     id="text3265"
     sodipodi:linespacing="125%"
     transform="scale(0.98904796,1.0110733)"><tspan
       sodipodi:role="line"
       x="943.7251"
       y="203.04535"
       id="tspan3279">Température de </tspan><tspan
       sodipodi:role="line"
       x="943.7251"
       y="234.85672"
       id="tspan3283">surface</tspan><tspan
       sodipodi:role="line"
       x="943.7251"
       y="266.66809"
       id="tspan3269">très basse</tspan></text>
</svg>
