<?xml version="1.0" encoding="UTF-8" standalone="no"?>
<!DOCTYPE svg PUBLIC "-//W3C//DTD SVG 1.1//EN" "http://www.w3.org/Graphics/SVG/1.1/DTD/svg11.dtd">
<!-- Created with Inkscape (http://www.inkscape.org/) -->
<svg
   xmlns:svg="http://www.w3.org/2000/svg"
   xmlns="http://www.w3.org/2000/svg"
   version="1.1"
   width="450"
   height="350"
   id="svg2913">
  <defs
     id="defs2915" />
  <g
     transform="translate(-256.33095,-587.01119)"
     id="g2177">
    <rect
       width="450"
       height="350"
       x="256.33096"
       y="587.01117"
       id="rect2391"
       style="opacity:1;fill:#daf0fd;fill-opacity:1;fill-rule:nonzero;stroke:none;stroke-width:5;stroke-linecap:round;stroke-linejoin:round;stroke-miterlimit:4;stroke-dasharray:none;stroke-opacity:1" />
    <path
       d="M 62.755727,120.54385 C 62.59678,115.14392 66.644814,114.17989 66.644814,114.17989 L 94.752309,123.72583 L 91.216775,155.54563 C 81.986139,150.88927 76.73012,141.46337 75.748814,126.90781 C 75.748814,126.90781 62.893815,125.08158 62.755727,120.54385 z"
       transform="translate(256.33095,587.01119)"
       id="path3177"
       style="fill:#7377c5;fill-opacity:1;fill-rule:evenodd;stroke:#bfc2fd;stroke-width:0.60000002;stroke-linecap:butt;stroke-linejoin:miter;stroke-miterlimit:4;stroke-dasharray:none;stroke-opacity:1" />
    <path
       d="M 57.762,124 C 57.952122,128.60723 57.70657,134.00713 61.695067,136.01181 C 65.665675,138.00751 69.723675,137.47022 73.05297,135.96761 L 69.694212,124 L 57.762,124 z"
       transform="translate(256.33095,587.01119)"
       id="path3179"
       style="fill:#2b5d0a;fill-rule:evenodd;stroke:#8aa678;stroke-width:0.60000002;stroke-linecap:butt;stroke-linejoin:miter;stroke-miterlimit:4;stroke-dasharray:none;stroke-opacity:1" />
    <g
       transform="matrix(0.5979073,0,0,0.5979073,167.23174,395.2512)"
       id="g3178">
      <path
         d="M 291.32799,193.4133 C 261.94884,158.3847 289.53769,147.57049 312,134.36988 L 312,167.16196 L 291.32799,193.4133 z"
         transform="translate(158,246)"
         id="path3258"
         style="fill:#f57900;fill-rule:evenodd;stroke:#ce5c00;stroke-width:1.00349998;stroke-linecap:butt;stroke-linejoin:miter;stroke-miterlimit:4;stroke-dasharray:none;stroke-opacity:1" />
      <path
         d="M 160,292.7618 C 187.38609,276.46905 214.53139,271.43528 241.12341,268.89695 C 248.30551,258.03835 259.93615,249.58203 272.23611,243.97143 L 305.47013,243.97143 L 305.47013,369.12933 L 160,369.12933 L 160,292.7618 z"
         transform="translate(158,246)"
         id="path3256"
         style="fill:#215eba;fill-opacity:1;fill-rule:evenodd;stroke:#4383d7;stroke-width:1.00349998;stroke-linecap:butt;stroke-linejoin:miter;stroke-miterlimit:4;stroke-dasharray:none;stroke-opacity:1" />
      <path
         d="M 73.93111,220.03703 C 83.945704,219.72268 100.86835,228.59312 101.20466,238.57974 C 101.54105,248.56894 92.166866,263.91508 71.417785,249.36312 L 60.511246,226.0793 C 60.511246,226.0793 64.004818,220.3486 73.93111,220.03703 z"
         transform="translate(158,246)"
         id="path3166"
         style="fill:#edd400;fill-rule:evenodd;stroke:#fce94f;stroke-width:1.00349998;stroke-linecap:butt;stroke-linejoin:miter;stroke-miterlimit:4;stroke-dasharray:none;stroke-opacity:1" />
      <path
         d="M 352.12065,129.31289 C 349.70472,129.92601 344.76843,125.42727 342.9172,120.76117 C 339.60998,112.42515 347.14623,108.60447 354.34889,108.11485 C 361.55156,107.62523 383.37241,107.37366 395.79046,115.44589 L 352.12065,129.31289 z"
         transform="translate(158,246)"
         id="path3168"
         style="opacity:1;fill:#75507b;fill-rule:evenodd;stroke:#ad7fa8;stroke-width:1.00349998;stroke-linecap:butt;stroke-linejoin:miter;stroke-miterlimit:4;stroke-dasharray:none;stroke-opacity:1" />
      <path
         d="M 281,529.64257 C 281,529.64257 304.01967,526.41637 313.60186,527.34447 C 333.73624,529.29462 357.02644,547.00034 377.24147,546.25958 C 393.08678,545.67246 420.02143,520.596 420.02143,520.596 L 420.02143,429.23341 L 281,429.23341 L 281,529.64257 z"
         transform="translate(158,246)"
         id="path3170"
         style="fill:#cc0000;fill-rule:evenodd;stroke:#ef2929;stroke-width:1.00349998;stroke-linecap:butt;stroke-linejoin:miter;stroke-miterlimit:4;stroke-dasharray:none;stroke-opacity:1" />
      <path
         d="M 622.60753,269 C 622.60753,269 633.99569,278.88611 633.92123,289.57982 C 633.84677,300.27376 620.13265,308.31815 620.13265,308.31815 L 581.94888,308.31815 L 581.94888,269 L 622.60753,269 z"
         transform="translate(158,246)"
         id="path3172"
         style="fill:#73d216;fill-rule:evenodd;stroke:#8ae234;stroke-width:1.00349998;stroke-linecap:butt;stroke-linejoin:miter;stroke-miterlimit:4;stroke-dasharray:none;stroke-opacity:1" />
      <path
         d="M 658.8125,338.1875 C 658.8125,338.1875 675.7883,346.30742 678.125,354.25 C 680.13271,361.07434 669.6875,378.125 669.6875,378.125 L 658.8125,338.1875 z"
         transform="translate(158,246)"
         id="path3174"
         style="fill:#1a3c6e;fill-opacity:1;fill-rule:evenodd;stroke:#29508a;stroke-width:1.00349998;stroke-linecap:butt;stroke-linejoin:miter;stroke-miterlimit:4;stroke-dasharray:none;stroke-opacity:1" />
      <path
         d="M 670,404 C 677.62967,408.11107 700.24515,407.9132 700.03572,419.86424 C 699.96064,424.13266 691.30246,427.03685 688.7662,430.47085 C 685.6998,434.62262 684.79369,440.83484 680.85544,444.17104 C 677.78009,446.77626 670,444.08265 670,444.08265 L 670,404 z"
         transform="translate(158,246)"
         id="path3176"
         style="fill:#c17d11;fill-rule:evenodd;stroke:#e9b96e;stroke-width:1.00349998;stroke-linecap:butt;stroke-linejoin:miter;stroke-miterlimit:4;stroke-dasharray:none;stroke-opacity:1" />
      <path
         d="M 225.26859,508.36986 C 224.96829,508.36986 223.35584,507.23648 221.68537,505.85124 L 218.64816,503.33262 L 220.85432,503.29002 L 223.06047,503.24741 L 224.43753,505.80863 C 225.19491,507.21731 225.56889,508.36986 225.26859,508.36986 z M 619.83104,885.84286 L 614.68493,885.83187 L 611.96042,884.24998 C 610.46194,883.37995 607.61677,881.53124 605.63783,880.14174 L 602.03978,877.6154 L 586.59828,877.9057 L 571.15679,878.19601 L 568.66946,875.94992 C 567.30143,874.71456 563.77972,872.54627 560.84342,871.13149 L 555.5047,868.55915 L 556.08112,866.64935 C 556.39813,865.59895 556.55204,862.52358 556.4231,859.81517 L 556.1887,854.89081 L 557.50012,852.45166 L 558.81155,850.0125 L 560.69769,850.0125 L 562.58384,850.0125 L 566.57597,841.60198 L 570.5681,833.19146 L 570.82742,829.46322 L 571.08672,825.73496 L 574.12186,822.51907 L 577.157,819.30316 L 575.49723,815.76881 C 574.58434,813.82492 572.49878,808.09001 570.86262,803.02455 L 567.88778,793.81465 L 561.26417,785.42502 L 554.64057,777.03538 L 557.3396,772.68834 C 558.82407,770.29746 560.93417,767.60148 562.02872,766.69726 L 564.01879,765.05324 L 563.15039,759.9368 L 562.28198,754.82037 L 559.86304,750.87183 C 558.53263,748.70013 557.44194,746.05034 557.4393,744.9834 C 557.43665,743.91647 556.31415,740.9628 554.94483,738.41971 C 553.57553,735.87662 549.95717,731.21992 546.90404,728.07149 C 543.85092,724.92305 538.38827,719.22802 534.76482,715.41586 L 528.17674,708.48466 L 518.03997,703.43167 L 507.90321,698.37868 L 501.84599,692.0924 C 498.51451,688.63494 493.91528,684.43025 491.62546,682.74865 L 487.46215,679.69118 L 483.81215,679.69118 L 480.16213,679.69118 L 479.3297,681.85049 L 478.49726,684.00981 L 480.9284,685.37218 C 482.26554,686.12147 485.03299,688.33363 487.07829,690.28808 L 490.79704,693.84161 L 489.22297,695.72952 L 487.64892,697.61742 L 489.26518,701.50148 L 490.88143,705.38553 L 490.17519,706.08852 L 489.46894,706.79153 L 486.70346,705.3183 L 483.938,703.84506 L 482.09044,705.37134 L 480.24289,706.89763 L 480.24289,711.22296 L 480.24289,715.5483 L 479.26583,715.5483 C 478.72845,715.5483 477.5433,714.3601 476.63216,712.90783 L 474.97555,710.26738 L 471.50932,710.66676 L 468.0431,711.06616 L 465.02322,716.82212 L 462.00333,722.5781 L 462.80034,727.53933 L 463.59733,732.50056 L 461.30627,731.53498 C 460.04618,731.00391 457.85732,730.50324 456.44214,730.42237 L 453.86909,730.27533 L 453.462,733.79701 L 453.05492,737.31869 L 450.80802,737.31869 L 448.56111,737.31869 L 445.13841,740.87481 L 441.71569,744.43092 L 442.48964,749.17828 L 443.26359,753.92564 L 445.02838,755.38355 L 446.79319,756.84147 L 446.79319,760.3895 L 446.79319,763.93751 L 444.8634,764.67464 L 442.93361,765.41176 L 442.93361,767.40457 L 442.93361,769.39737 L 446.14993,770.61459 L 449.36624,771.83181 L 449.36624,773.67968 C 449.36624,774.69602 449.01484,776.43911 448.58533,777.55321 L 447.80443,779.57887 L 443.69161,779.57887 L 439.57877,779.57887 L 435.6212,775.41688 C 433.44454,773.12779 430.98619,769.94217 430.15821,768.33773 L 428.6528,765.42056 L 424.48734,765.6998 L 420.32187,765.97905 L 418.91369,765.11274 L 417.5055,764.24643 L 414.13798,766.88316 L 410.77044,769.51987 L 410.77044,771.28187 L 410.77044,773.04386 L 407.87575,776.06859 L 404.98107,779.09333 L 399.83496,778.85506 C 397.0046,778.724 392.80731,777.96884 390.50764,777.17691 C 388.20798,776.38498 384.44489,775.07199 382.14522,774.25915 L 377.96401,772.78126 L 374.10443,772.92067 C 371.98166,772.99735 368.94224,772.78701 367.35016,772.45324 L 364.45548,771.84641 L 364.45548,769.14464 L 364.45548,766.44287 L 359.95517,761.16522 C 357.48,758.2625 354.73005,755.17743 353.84416,754.30951 C 352.95829,753.44159 350.86652,751.42463 349.1958,749.82737 C 347.52508,748.23012 342.08895,741.7368 337.11551,735.39778 C 332.14207,729.05875 327.28545,723.41143 326.32302,722.84818 L 324.57315,721.82409 L 324.57315,718.93096 L 324.57315,716.03783 L 322.92974,713.80067 L 321.28634,711.56352 L 318.74852,711.09267 C 317.35273,710.8337 315.96507,710.57772 315.66484,710.52383 C 315.36459,710.46994 316.43013,709.03657 318.03269,707.33857 L 320.94644,704.25128 L 320.45796,701.89597 L 319.96946,699.54066 L 316.40075,699.79281 L 312.83204,700.04497 L 313.24556,697.87189 L 313.65906,695.69882 L 318.47285,695.30136 L 323.28662,694.90391 L 323.28662,689.3485 L 323.28662,683.79309 L 319.40213,676.44252 L 315.51764,669.09194 L 316.32899,664.78697 L 317.14034,660.48201 L 315.96794,660.48201 C 315.32312,660.48201 314.06476,661.20235 313.17159,662.08277 L 311.54763,663.68354 L 310.2773,661.44247 L 309.00697,659.2014 L 306.49784,659.2014 L 303.98872,659.2014 L 303.98872,661.03512 L 303.98872,662.86882 L 300.35986,665.44092 L 298.731,671.51301 L 297.13048,667.10721 L 295.52995,662.7014 L 293.77013,662.7014 L 292.01032,662.7014 L 291.18432,665.29191 C 290.73002,666.71669 290.52001,669.75043 290.71762,672.03356 L 291.07691,676.1847 L 290.09446,677.76702 C 289.55412,677.1373 288.70768,679.34934 288.21348,679.34934 L 287.31496,679.34934 L 287.09987,672.62613 C 286.98156,668.92837 286.8928,663.59782 286.90262,660.78048 C 286.91245,657.96313 286.86342,653.64107 286.79367,651.17589 C 286.72394,648.71072 286.5093,642.26807 286.31671,636.85891 L 285.96654,627.02407 L 283.85881,624.6931 L 281.75109,622.36213 L 284.22095,619.33889 L 286.69082,616.31564 L 286.69082,613.89049 L 286.69082,611.46534 L 290.4724,599.73171 L 296.25399,591.49809 L 295.59838,589.81277 C 295.23777,588.88585 293.21499,587.14578 291.1033,585.94595 L 287.26387,583.76444 L 287.26387,581.9228 L 287.26387,580.08115 L 290.48019,579.27762 L 293.6965,578.47408 L 293.6965,577.26775 C 293.6965,576.60427 294.85079,574.99099 296.26158,573.68268 L 298.82666,571.30394 L 298.33069,553.95826 L 297.83473,536.61257 L 296.43789,534.01454 C 295.66961,532.58563 293.24675,529.91367 291.05375,528.07685 L 287.06645,524.73719 L 281.63309,524.73719 L 277.69974,523.73719 L 276.37535,522.41889 L 275.05095,521.10058 L 265.3131,520.01355 C 259.95729,519.41568 254.93757,518.53422 254.15819,518.05475 L 252.74112,517.18299 L 252.74112,513.67284 L 252.74112,510.16271 L 251.19729,508.62598 L 249.65346,507.08924 L 246.77037,507.08924 L 243.88728,507.08924 L 243.16096,505.91943 C 242.76149,505.27604 239.75361,503.45773 236.47677,501.87873 L 230.5189,499.00784 L 228.18113,500.46109 L 225.84334,501.91435 L 225.02968,500.60387 L 224.21602,499.29338 L 225.6358,497.59051 L 227.05557,495.88765 L 223.81677,493.77525 L 220.57795,491.66286 L 222.57795,490.17416 C 222.57795,489.35538 221.37804,487.41408 219.91151,485.8602 C 218.44496,484.30631 217.12879,482.25221 216.98668,481.29553 C 216.84457,480.33885 215.95593,477.70236 215.01192,475.43669 L 213.29554,471.3173 L 210.74323,470.51095 L 208.19093,469.7046 L 208.83472,467.25407 L 211.9785,465.30353 L 210.1413,457.31248 C 209.13083,452.91739 211.90632,448.95701 211.42015,447.90051 L 210.53622,445.97959 L 212.97976,436.69526 C 212.94872,431.58887 213.01855,427.41088 213.13496,427.41083 C 213.25135,427.41076 214.74151,429.89503 216.44641,432.93141 L 219.54624,438.45209 L 218.3325,441.15968 L 217.11877,443.86726 L 216.70224,449.95384 C 217.84817,453.30146 215.78574,455.08587 214.78574,457.86364 L 214.78574,460.18686 L 218.43968,463.42756 C 220.44935,465.20996 220.68353,466.96158 222.01565,467.93117 L 224.43769,469.69406 L 222.57347,473.16135 L 220.70927,476.62865 L 223.89503,479.39507 L 225.08079,482.16149 L 227.9087,487.90216 L 230.7366,493.64282 L 235.24465,496.05254 L 239.75269,498.46225 L 244.63307,498.61376 L 249.51343,498.76527 L 250.65008,496.20405 L 251.78672,493.64282 L 259.84163,493.79894 L 267.89653,493.95506 L 271.95425,495.97 L 276.01196,497.98496 L 280.56629,499.81538 C 283.89617,500.27211 288.17811,501.29348 290.08174,502.08507 L 293.54288,503.52434 L 294.15595,505.85792 L 294.769,508.19151 L 297.98663,507.38765 L 301.20425,506.5838 L 302.59187,509.16466 L 303.97949,511.74554 L 303.2032,513.75923 L 302.4269,515.77291 L 303.64457,515.77291 L 304.86223,515.77291 L 306.32769,512.57138 L 307.79313,509.36986 L 309.10724,509.36986 L 310.42135,509.36986 L 310.42135,512.43437 L 310.42135,515.49889 L 312.46724,516.28037 L 314.51312,517.06184 L 315.87873,516.22173 L 317.24433,515.38162 L 318.65731,517.289 C 319.43446,518.33807 321.37291,519.88707 322.96499,520.73124 L 325.85967,522.26609 L 325.85967,526.10792 L 325.85967,529.94976 L 327.93743,533.10622 L 330.01518,536.2627 L 332.27945,536.2627 L 334.54373,536.2627 L 335.34781,540.26461 C 335.79005,542.46566 336.15189,547.86998 336.15189,552.27422 L 336.15189,560.28192 L 338.92506,562.11477 L 341.69823,563.94762 L 339.42499,569.87268 L 337.15174,575.79773 L 332.25839,577.74666 C 329.56706,578.81857 327.02102,580.24968 326.60053,580.9269 L 325.83603,582.15822 L 327.99863,584.31088 L 330.16123,586.46354 L 334.76471,585.70596 C 337.29664,585.2893 341.56679,584.33239 344.25394,583.57952 L 349.13968,582.21064 L 350.3331,579.08615 L 351.52652,575.96165 L 353.40146,575.96165 L 355.27639,575.96165 L 356.00657,578.25167 L 356.73675,580.54168 L 354.43697,584.97488 C 353.1721,587.41314 351.09581,590.96748 349.82302,592.87343 L 347.50884,596.3388 L 348.33892,597.67572 C 348.79547,598.41104 349.89494,599.01266 350.78218,599.01266 L 352.39534,599.01266 L 356.09305,595.17082 L 359.79076,591.32899 L 362.12312,591.32899 L 364.45548,591.32899 L 364.45544,594.21036 L 364.4554,597.09174 L 359.95259,600.66801 L 355.44979,604.24429 L 355.44979,606.11061 L 355.44979,607.97694 L 358.04653,607.97694 L 360.64325,607.97694 L 367.37385,604.54961 C 371.07566,602.66458 374.3553,600.92615 374.66192,600.68643 C 374.96855,600.44671 374.53435,599.56866 373.69702,598.73519 C 372.85971,597.90173 372.17464,596.25307 372.17464,595.0715 L 372.17464,592.92321 L 373.94136,591.4637 L 375.70808,590.00418 L 377.80094,590.80361 L 379.8938,591.60301 L 379.8938,595.30784 L 379.8938,599.01266 L 381.77833,599.01266 L 383.66284,599.01266 L 385.0399,596.45143 L 386.41696,593.89021 L 393.36384,593.89021 L 400.31072,593.89021 L 403.82029,595.21841 L 407.32986,596.54661 L 408.72852,595.11308 L 410.12718,593.67956 L 405.82688,590.07098 L 401.52658,586.46241 L 401.9798,584.11986 L 402.43301,581.77733 L 405.89621,580.56499 L 409.35943,579.35265 L 414.48311,581.03583 L 419.60681,582.71903 L 425.12769,581.32412 L 430.64858,579.92922 L 432.71119,581.78727 L 434.77379,583.64532 L 436.96429,583.64532 L 439.15478,583.64532 L 439.81373,581.93602 L 440.47269,580.22671 L 435.96098,573.55318 L 431.44927,566.87963 L 430.61721,562.46478 L 429.78515,558.04993 L 430.59452,554.83998 L 431.40388,551.63003 L 435.88222,551.63003 L 440.36056,551.63003 L 440.36056,548.0999 C 440.36056,546.15833 439.79143,542.59446 439.09584,540.1802 L 437.8311,535.79065 L 439.60268,529.03778 L 441.37424,522.28491 L 444.08371,518.85622 L 446.79319,515.42751 L 446.79319,511.19127 L 446.79319,506.95503 L 444.09305,502.39969 L 441.39293,497.84435 L 440.15358,497.84435 C 439.47194,497.84435 436.00878,498.79032 432.45765,499.94649 L 426.00108,502.04861 L 423.45496,499.51422 L 420.90886,496.97983 L 420.76734,492.60979 L 420.62581,488.23977 L 422.65209,479.91579 C 423.76656,475.33761 425.2634,469.86299 425.97841,467.74998 C 426.69342,465.63698 427.98664,461.60305 428.85223,458.7857 L 430.42602,453.66326 L 434.32685,448.21789 L 438.22767,442.77254 L 442.5411,440.23925 C 444.91348,438.84594 447.08509,436.97429 447.36689,436.08003 C 447.64868,435.18576 448.24043,432.29103 448.68189,429.64729 L 449.48454,424.84049 L 451.51176,423.24423 C 452.62673,422.36629 455.20533,420.00227 457.24197,417.99085 L 460.94498,414.33375 L 460.94498,412.54825 L 460.94498,410.76277 L 458.62924,410.76277 C 457.35557,410.76277 455.66921,411.40409 454.88175,412.18793 L 453.45001,413.61308 L 452.05139,412.75265 L 450.65277,411.89224 L 450.65277,408.79916 L 450.65277,405.7061 L 454.51235,403.71941 L 458.37193,401.73272 L 458.39535,399.52454 L 458.41875,397.31635 L 462.25493,391.68105 C 464.36482,388.58162 466.08223,385.41211 466.07139,384.63769 C 466.06056,383.86325 465.55907,382.45595 464.95698,381.51033 L 463.86226,379.79103 L 466.58483,374.79769 C 468.08225,372.05134 469.72674,369.79959 470.23927,369.79377 C 470.75179,369.78796 472.08788,371.54787 473.20836,373.70468 L 475.2456,377.62615 L 477.37146,377.21863 L 479.49732,376.8111 L 480.28996,372.977 C 480.72591,370.86824 481.78245,367.84628 482.63781,366.26153 C 483.49315,364.67677 484.67128,363.38015 485.25585,363.38015 L 486.31871,363.38015 L 485.70693,366.56575 L 485.09515,369.75135 L 486.86252,370.42643 L 488.62987,371.10152 L 494.85586,369.94372 L 501.08184,368.78593 L 504.49253,370.55729 C 506.36841,371.53154 509.18545,372.3322 510.75264,372.33654 L 513.60205,372.34443 L 514.97686,369.7874 L 516.35167,367.23035 L 521.73855,364.49481 L 527.12544,361.75926 L 535.5257,361.12717 L 543.92596,360.49507 L 545.85575,358.92492 L 547.78554,357.35476 L 553.33854,357.54711 L 558.89154,357.73947 L 562.11584,361.84042 L 565.34015,365.94137 L 567.01916,365.94137 C 567.94262,365.94137 569.36568,365.14077 570.18152,364.16227 L 571.66487,362.38317 L 575.14042,361.72182 L 578.61599,361.06049 L 582.26976,362.94125 L 585.92353,364.82199 L 592.72309,363.97635 L 599.52264,363.13071 L 603.88748,367.45561 C 606.28812,369.83429 610.52851,373.45727 613.31055,375.50665 L 618.3688,379.2328 L 629.39214,381.04853 C 635.45497,382.04716 642.07164,382.82058 644.09585,382.76721 L 647.77623,382.67018 L 651.69966,384.68973 L 655.62308,386.70929 L 662.83458,386.19006 L 670.04609,385.67082 L 674.19122,382.62028 L 678.33636,379.56973 L 679.14411,380.37376 L 679.95185,381.17779 L 680.13229,391.16799 L 680.31271,401.15819 L 683.5143,405.41767 L 686.71588,409.67715 L 690.38925,408.94586 L 694.06263,408.21456 L 697.99776,404.91859 L 701.9329,401.62262 L 704.62387,402.27926 C 706.10392,402.64042 710.49902,403.33294 714.39076,403.81821 L 721.46666,404.70051 L 723.03834,405.93741 C 723.90277,406.61769 726.79746,407.75648 729.47098,408.46803 C 732.14449,409.17959 736.06874,409.89553 738.1915,410.05901 L 742.05109,410.35626 L 742.49599,413.44089 C 742.74069,415.13743 743.53525,417.24587 744.26167,418.12629 L 745.58246,419.72705 L 748.49119,419.72705 L 751.39994,419.72705 L 752.10666,417.03698 L 752.81337,414.34691 L 754.29858,415.26059 L 755.78378,416.17428 L 755.19666,418.40909 L 754.60954,420.64388 L 755.79177,422.7467 L 756.974,424.8495 L 758.80682,424.8495 L 760.63965,424.8495 L 762.63551,421.00767 C 763.73324,418.89466 765.10905,417.16583 765.69289,417.16583 C 766.27672,417.16583 768.72233,417.82052 771.12759,418.62068 L 775.50078,420.07555 L 779.15359,423.42298 C 781.16263,425.26407 783.66915,428.41517 784.72363,430.42542 L 786.64087,434.08043 L 785.77457,440.35016 L 784.90828,446.6199 L 781.6627,446.6199 L 778.41714,446.6199 L 779.34837,450.14158 C 779.86055,452.0785 778.36224,453.46836 778.46325,456.2857 L 778.14689,464.90815 L 780.60564,467.96937 C 781.40796,469.37805 783.97673,471.62383 784.4807,474.79335 L 785.39699,480.5561 L 787.30527,483.54756 L 789.21355,486.539 L 788.80324,502.86775 C 790.77758,510.47354 796.75153,514.77401 797.18981,515.4799 L 797.98667,516.76333 L 795.86858,518.50918 L 793.7505,520.25505 L 783.98238,520.48595 C 778.6099,520.61293 772.1959,520.90107 769.72904,521.12625 L 765.24381,521.53566 L 764.7624,524.02388 L 764.28101,526.5121 L 761.20684,528.91912 L 758.13267,531.32614 L 758.13267,534.43473 L 758.13267,537.54331 L 751.70004,537.54331 L 745.2674,537.54331 L 745.2674,538.77887 C 745.2674,539.45842 746.49286,540.66724 747.99063,541.46514 L 750.71386,542.91587 L 763.61093,543.19493 L 776.50799,543.47399 L 778.89906,546.41327 L 781.29015,549.35256 L 781.29015,551.7719 L 781.29015,554.19126 L 782.49843,554.19126 C 783.16299,554.19126 786.38235,556.49636 789.65258,559.3137 L 795.59844,564.43615 L 798.8004,564.43615 L 802.00236,564.43615 L 805.78543,566.38346 L 809.5685,568.33076 L 812.06014,573.19233 C 813.43055,575.86619 815.40157,578.75592 816.44019,579.61393 C 817.47881,580.47195 818.82373,581.08549 819.4289,580.97738 C 820.03407,580.86926 821.29888,580.84904 822.2396,580.93245 L 823.94998,581.0841 L 823.1042,584.91718 L 822.25843,588.75026 L 824.85989,592.04228 L 827.46135,595.33429 L 826.74651,597.18853 L 826.03169,599.04278 L 829.47043,606.2721 L 832.90916,613.50142 L 832.09446,618.30134 L 831.27977,623.10127 L 833.38881,629.28472 L 835.49785,635.46819 L 834.82584,639.33097 L 834.15382,643.19375 L 835.26043,648.91323 L 836.36704,654.63271 L 834.74939,656.93161 L 833.13174,659.23052 L 833.74955,665.93917 C 834.08937,669.62893 834.89252,673.6563 835.53435,674.88889 L 836.70134,677.12996 L 838.50994,677.12996 C 839.50467,677.12996 840.71597,677.77007 841.20174,678.55243 L 842.08494,679.97492 L 838.53093,682.79575 L 834.97693,685.61658 L 836.43713,688.33244 L 837.89733,691.04831 L 837.89733,695.41545 L 837.89733,699.78259 L 826.47116,704.00728 C 821.83677,710.45586 818.29368,719.72472 817.9141,719.23197 C 813.29212,713.23197 817.87461,723.1364 816.76408,724.24182 L 814.74496,727.25167 L 816.02892,729.63976 C 816.73511,730.95322 817.3129,733.17714 817.3129,734.58181 L 817.3129,737.13575 L 819.44185,739.25491 L 821.5708,741.37407 L 822.15248,747.3999 L 822.73416,753.42572 L 820.88768,754.95113 C 819.87211,755.79009 816.77385,756.94545 814.00264,757.51857 L 808.96408,758.56062 L 808.49721,761.06592 C 808.24043,762.44384 807.44281,764.29157 806.72472,765.17199 L 805.4191,766.77276 L 802.59188,766.77276 L 799.76468,766.77276 L 794.2469,771.47405 L 788.72912,776.17534 L 786.36657,781.66163 L 784.004,787.14793 L 783.14575,795.20905 L 782.28749,803.27018 L 780.50792,806.09795 L 778.72836,808.92572 L 779.04435,811.76867 L 779.36036,814.6116 L 776.14404,815.53644 C 774.37507,816.04511 770.77159,816.51875 768.13629,816.58895 L 763.34485,816.7166 L 761.45775,820.34907 L 759.57066,823.98154 L 761.42471,827.53882 C 762.44445,829.49533 763.27878,832.07869 763.27878,833.27965 L 763.27878,835.46321 L 758.43493,841.77739 C 755.7708,845.2502 751.61172,850.25262 749.19252,852.89388 L 744.79396,857.69617 L 741.89029,857.69617 L 738.98662,857.69617 L 738.19305,858.9743 C 737.75658,859.67726 734.10407,861.72 730.07633,863.51373 C 726.0486,865.30745 720.06264,868.18995 716.7742,869.91927 C 713.48576,871.6486 710.05772,873.06351 709.15635,873.06351 C 708.25497,873.06351 706.60348,873.82451 705.48637,874.75463 C 704.36927,875.68475 701.13953,877.12133 698.30917,877.947 L 693.16307,879.44824 L 691.64439,877.41353 L 690.12571,875.37881 L 682.6387,875.70376 L 675.15169,876.0287 L 673.025,875.09704 L 670.89831,874.16538 L 665.44451,876.93491 L 659.99073,879.70444 L 657.02194,878.1229 L 654.05317,876.54135 L 650.07776,878.18045 L 646.10237,879.81954 L 644.34659,882.31473 L 642.59081,884.80994 L 639.97956,883.41886 C 638.54337,882.65378 636.23855,882.02779 634.85774,882.02779 C 633.47692,882.02779 630.68892,882.88865 628.66216,883.94082 L 624.97715,885.85384 L 619.83104,885.84286 z M 272.57404,556.24919 C 271.45477,556.67671 270.47862,556.82077 270.40478,556.56934 C 270.33096,556.31789 270.13656,554.00461 269.97277,551.42868 L 269.67499,546.74519 L 267.46319,544.54357 L 265.2514,542.34195 L 265.64379,538.98216 L 266.03618,535.62239 L 261.85497,535.2211 L 257.67375,534.81981 L 257.67375,532.33972 L 257.67375,529.85964 L 256.54475,529.85964 C 255.92381,529.85964 254.64522,530.78382 253.70344,531.91336 L 251.99114,533.96707 L 246.93628,533.29219 L 241.88142,532.61732 L 239.91752,530.66244 L 237.95363,528.70758 L 239.4734,526.88477 L 240.99317,525.06197 L 253.50209,525.55995 L 266.011,526.05791 L 273.32178,528.09978 L 280.63256,530.14166 L 284.59148,533.99444 L 288.5504,537.84721 L 288.5504,540.98098 C 288.5504,542.70456 287.95109,545.22941 287.21861,546.59178 C 286.48613,547.95414 285.30633,549.06881 284.59686,549.06881 L 283.3069,549.06881 L 283.67723,545.54713 L 284.04755,542.02545 L 280.43181,541.61276 L 276.81606,541.20007 L 275.10654,542.61233 L 273.39701,544.02458 L 272.7703,547.28794 L 272.14359,550.55129 L 273.91437,551.22768 L 275.68513,551.90406 L 275.68513,553.68796 C 275.68513,554.6691 275.443,555.47187 275.14709,555.47187 C 274.85116,555.47187 273.69329,555.82165 272.57404,556.24919 z M 415.86144,548.2882 L 413.62898,548.2882 L 411.58554,541.13802 L 407.0421,533.48784 L 400.69764,527.27138 L 394.35319,521.05494 L 392.97575,517.12181 L 391.59833,513.18869 L 394.67737,511.1805 L 397.75641,509.17232 L 400.72547,509.59124 L 403.69454,510.01016 L 404.10565,512.89154 L 404.51676,515.77291 L 406.92441,515.77291 L 409.33206,515.77291 L 410.17622,517.13251 C 410.64051,517.8803 412.41458,519.01976 414.1186,519.66464 L 417.21683,520.83717 L 419.33206,525.25247 L 421.4473,529.66777 L 421.02059,539.22799 L 418.09389,548.2882 L 415.86144,548.2882 z M 222.57226,431.25256 L 220.8569,431.25256 L 221.71457,430.39881 L 222.57226,429.54508 L 223.42995,430.39881 L 224.28763,431.25256 L 222.57226,431.25256 z M 550.4658,789.72266 L 547.99997,789.82376 L 548.77724,789.05006 L 549.55452,788.27636 L 551.24308,788.94896 L 552.93165,789.62157 L 550.4658,789.72266 z M 214.20984,424.8495 C 213.85604,424.8495 213.56658,424.56136 213.56658,424.20919 C 213.56658,423.85703 213.85604,423.56889 214.20984,423.56889 C 214.56363,423.56889 214.8531,423.85703 214.8531,424.20919 C 214.8531,424.56136 214.56363,424.8495 214.20984,424.8495 z M 468.60141,766.48379 C 467.50552,766.69143 466.20292,766.45719 465.70673,765.96328 L 464.80456,765.06528 L 464.85083,759.1958 L 464.8971,753.32634 L 468.08988,757.16817 L 471.28265,761.01001 L 470.93829,763.55814 L 470.59393,766.10629 L 468.60141,766.48379 z M 331.35861,758.30848 C 330.7753,758.30848 329.88597,757.64477 329.38231,756.8336 L 328.46657,755.3587 L 330.82062,753.6453 C 332.11536,752.70292 333.33872,752.09517 333.53921,752.29473 C 333.73969,752.4943 333.5697,753.92903 333.16144,755.48303 L 332.41916,758.30848 L 331.35861,758.30848 z M 334.00578,748.06359 L 332.29041,748.06359 L 333.14809,747.20984 L 334.00578,746.35611 L 334.86347,747.20984 L 335.72114,748.06359 L 334.00578,748.06359 z M 327.54385,740.37992 C 326.93589,740.37992 326.19488,739.94771 325.89716,739.41946 C 325.59943,738.89121 324.9753,736.87424 324.5102,734.93732 L 323.66455,731.41564 L 326.17021,731.41564 L 328.67588,731.41564 L 330.69757,733.42803 C 331.8095,734.53483 332.71925,736.20201 332.71925,737.13285 L 332.71925,738.82528 L 330.68424,739.6026 C 329.56499,740.03013 328.15181,740.37992 327.54385,740.37992 z M 273.94812,669.44253 L 273.03976,671.07908 L 272.14613,670.18956 L 271.25249,669.30003 L 271.25249,661.7456 L 271.25249,654.19119 L 272.60357,651.67828 L 273.95465,649.16538 L 275.30957,649.99891 L 280.66449,650.83246 L 275.76048,659.31922 C 279.26328,664.98694 274.44771,668.54242 273.94812,669.44253 z M 379.58728,576.69362 C 379.26433,577.01511 377.46436,576.07569 375.58735,574.60602 L 372.17464,571.93392 L 372.17464,570.10595 L 372.17464,568.27798 L 373.37356,568.27798 C 374.03296,568.27798 375.83294,570.03999 377.37349,572.19355 C 378.91404,574.34711 379.91025,576.37214 379.58728,576.69362 z M 290.55612,565.71676 C 289.53649,565.71676 288.32065,565.10214 287.85423,564.35095 L 287.00622,562.98514 L 287.72282,562.27183 L 288.43942,561.55851 L 290.4247,562.31684 L 292.40998,563.07515 L 292.40998,564.39596 L 292.40998,565.71676 L 290.55612,565.71676 z M 401.76475,564.43615 C 401.05716,564.43615 400.47823,563.85987 400.47823,563.15554 C 400.47823,562.4512 401.05716,561.87493 401.76475,561.87493 C 402.47234,561.87493 403.05128,562.4512 403.05128,563.15554 C 403.05128,563.85987 402.47234,564.43615 401.76475,564.43615 z M 244.82947,552.25743 L 243.52196,553.0618 L 243.52196,551.06531 C 243.52196,549.96724 243.77726,549.06881 244.08929,549.06881 C 244.40133,549.06881 244.98971,549.60527 245.3968,550.26093 L 246.13698,551.45305 L 244.82947,552.25743 z M 191.33095,446.45837 L 191.83095,442.95837 L 195.33095,435.95837 L 197.33095,439.95837 L 191.33095,446.45837 z M 196.33095,422.45837 L 193.33095,426.45837 L 195.83095,434.45837 L 195.83095,427.95837 L 197.83095,424.95837 L 196.33095,422.45837 z M 217.83095,502.95837 L 231.33095,516.95837 L 236.33095,515.95837 L 235.83095,515.95837 L 234.33095,511.95837 L 226.33095,505.45837 L 222.83095,501.95837 L 217.83095,502.95837 z M 217.83095,425.95837 L 211.83095,422.95837 L 215.33095,417.95837 L 220.83095,422.45837 L 217.83095,425.95837 z M 197.33095,404.45837 L 198.33095,399.95837 L 193.83095,403.45837 L 197.33095,404.45837 z M 242.33095,340.95837 C 237.33095,346.95837 239.33095,349.45837 239.33095,349.45837 L 245.33095,342.45837 L 242.33095,340.95837 z M 283.83095,573.45837 L 289.33095,573.95837 L 291.33095,568.45837 L 283.33095,568.95837 L 283.83095,573.45837 z M 851.33095,673.95837 L 852.33095,663.95837 L 859.33095,665.95837 L 849.33095,665.95837 L 851.33095,673.95837 z M 230.33095,465.95837 L 236.33095,477.95837 L 240.33095,469.95837 L 230.33095,465.95837 z M 501.33095,354.95837 L 500.33095,360.95837 L 505.33095,359.95837 L 501.33095,354.95837 z M 255.33095,544.95837 L 248.33095,545.95837 L 251.33095,555.95837 L 255.33095,544.95837 z"
         id="Antarctique"
         style="opacity:1;fill:#fcf5e3;fill-opacity:1;fill-rule:nonzero;stroke:#27aaea;stroke-width:1.00349998;stroke-miterlimit:4;stroke-dasharray:none;stroke-opacity:1" />
    </g>
  </g>
</svg>