<?xml version="1.0" encoding="utf-8"?>
<!-- Generator: Adobe Illustrator 12.0.0, SVG Export Plug-In . SVG Version: 6.00 Build 51448)  -->
<!DOCTYPE svg PUBLIC "-//W3C//DTD SVG 1.1//EN" "http://www.w3.org/Graphics/SVG/1.1/DTD/svg11.dtd" [
	<!ENTITY ns_svg "http://www.w3.org/2000/svg">
	<!ENTITY ns_xlink "http://www.w3.org/1999/xlink">
]>
<svg  version="1.1" id="Layer_1" xmlns="&ns_svg;" xmlns:xlink="&ns_xlink;" width="444.196" height="260.538"
	 viewBox="0 0 444.196 260.538" overflow="visible" enable-background="new 0 0 444.196 260.538" xml:space="preserve">
<rect fill="#009C00" width="444.196" height="260.538"/>
<line fill="none" x1="37.919" y1="19.892" x2="37.619" y2="256.337"/>
<line fill="none" stroke="#FFFFFF" stroke-width="2" x1="37.128" y1="19.892" x2="391.986" y2="19.892"/>
<line fill="none" stroke="#FFFFFF" stroke-width="2" x1="391.986" y1="18.94" x2="391.986" y2="257.113"/>
<line fill="none" stroke="#FFFFFF" stroke-width="2" x1="391.986" y1="256.037" x2="37.619" y2="256.337"/>
<line fill="none" stroke="#FFFFFF" stroke-width="2" x1="37.919" y1="53.198" x2="107.832" y2="52.898"/>
<line fill="none" stroke="#FFFFFF" stroke-width="2" x1="107.832" y1="52.156" x2="108.432" y2="224.407"/>
<line fill="none" stroke="#FFFFFF" stroke-width="2" x1="108.432" y1="223.331" x2="37.919" y2="223.331"/>
<line fill="none" stroke="#FFFFFF" stroke-width="2" x1="37.619" y1="176.822" x2="61.323" y2="176.522"/>
<line fill="none" stroke="#FFFFFF" stroke-width="2" x1="37.919" y1="99.707" x2="61.323" y2="99.407"/>
<line fill="none" stroke="#FFFFFF" stroke-width="2" x1="61.323" y1="98.579" x2="61.323" y2="177.671"/>
<line fill="none" stroke="#FFFFFF" stroke-width="2" x1="37.619" y1="123.112" x2="26.883" y2="123.112"/>
<line fill="none" stroke="#FFFFFF" stroke-width="2" x1="27.717" y1="123.112" x2="27.717" y2="154.018"/>
<line fill="none" stroke="#FFFFFF" stroke-width="2" x1="27.078" y1="154.018" x2="37.319" y2="154.317"/>
<line fill="none" stroke="#FFFFFF" stroke-width="2" x1="214.953" y1="19.892" x2="215.252" y2="256.937"/>
<line fill="none" stroke="#FFFFFF" stroke-width="2" x1="321.003" y1="53.198" x2="391.986" y2="53.198"/>
<line fill="none" stroke="#FFFFFF" stroke-width="2" x1="322.073" y1="53.198" x2="322.673" y2="223.331"/>
<line fill="none" stroke="#FFFFFF" stroke-width="2" x1="321.707" y1="223.331" x2="391.686" y2="223.331"/>
<line fill="none" stroke="#FFFFFF" stroke-width="2" x1="367.861" y1="99.707" x2="391.986" y2="99.707"/>
<line fill="none" stroke="#FFFFFF" stroke-width="2" x1="368.882" y1="99.707" x2="369.481" y2="177.879"/>
<line fill="none" stroke="#FFFFFF" stroke-width="2" x1="369.481" y1="176.822" x2="391.986" y2="176.822"/>
<line fill="none" stroke="#FFFFFF" stroke-width="2" x1="392.286" y1="122.512" x2="402.488" y2="122.512"/>
<line fill="none" stroke="#FFFFFF" stroke-width="2" x1="402.488" y1="121.543" x2="402.488" y2="155.203"/>
<line fill="none" stroke="#FFFFFF" stroke-width="2" x1="402.49" y1="154.182" x2="392.284" y2="154.152"/>
<ellipse fill="none" stroke="#FFFFFF" stroke-width="1.5" cx="215.403" cy="138.715" rx="40.358" ry="38.407"/>
<circle fill="#FFFFFF" cx="215.183" cy="138.714" r="2.7"/>
<circle fill="#FFFFFF" cx="345.777" cy="138.414" r="2.7"/>
<circle fill="#FFFFFF" cx="84.826" cy="138.116" r="2.7"/>
<path fill="none" stroke="#FFFFFF" stroke-width="1.5" d="M107.606,108.297c9.95,6.755,16.429,17.773,16.429,30.217
	c0,12.319-6.349,23.239-16.129,30.011"/>
<path fill="none" stroke="#FFFFFF" stroke-width="1.5" d="M321.851,108.216c-9.791,6.983-16.012,18.149-15.724,30.59
	c0.286,12.315,6.886,23.085,16.821,29.628"/>
<path fill="none" stroke="#FFFFFF" stroke-width="1.5" d="M44.876,19.881c0.094,0.438,0.144,0.894,0.144,1.361
	c0,3.397-2.62,6.151-5.851,6.151c-0.443,0-0.874-0.052-1.289-0.15"/>
<path fill="none" stroke="#FFFFFF" stroke-width="1.5" d="M392.106,27.475c-0.445,0.053-0.902,0.061-1.369,0.018
	c-3.383-0.313-5.883-3.175-5.584-6.393c0.041-0.441,0.131-0.866,0.268-1.27"/>
<path fill="none" stroke="#FFFFFF" stroke-width="1.5" d="M384.896,256.052c-0.051-0.445-0.054-0.903-0.007-1.369
	c0.343-3.38,3.226-5.855,6.44-5.53c0.441,0.045,0.865,0.141,1.268,0.279"/>
<path fill="none" stroke="#FFFFFF" stroke-width="1.5" d="M38.048,248.943c0.444-0.059,0.902-0.072,1.369-0.034
	c3.387,0.274,5.92,3.107,5.659,6.328c-0.035,0.441-0.121,0.867-0.253,1.272"/>
<g>
	<line fill="#FFFFFF" x1="31.427" y1="22.86" x2="31.108" y2="253.612"/>
	<g>
		<line fill="none" stroke="#000000" stroke-width="0.5" x1="31.427" y1="22.86" x2="31.108" y2="253.612"/>
		<path d="M31.517,254.557c0.201-0.661,0.385-1.091,0.599-1.621l-2.018-0.003c0.09,0.19,0.396,0.961,0.595,1.623
			c0.213,0.708,0.358,1.35,0.41,1.766C31.155,255.906,31.302,255.265,31.517,254.557z"/>
		<path d="M31.019,21.915c-0.201,0.661-0.385,1.091-0.599,1.621l2.018,0.003c-0.09-0.19-0.396-0.961-0.595-1.623
			c-0.213-0.708-0.358-1.35-0.41-1.766C31.38,20.565,31.233,21.207,31.019,21.915z"/>
	</g>
</g>
<text transform="matrix(0.8 0 0 1 66.0967 46.4951)" font-family="'LucidaGrande-Bold'" font-size="5">16,5m</text>
<g>
	<g>
		<line fill="none" stroke="#000000" stroke-width="0.5" x1="42.613" y1="138.235" x2="80.007" y2="138.235"/>
		<path d="M80.952,137.825c-0.662-0.2-1.091-0.384-1.622-0.597v2.018c0.189-0.09,0.96-0.397,1.622-0.597
			c0.708-0.214,1.35-0.36,1.766-0.413C82.301,138.186,81.659,138.039,80.952,137.825z"/>
		<path d="M41.668,138.646c0.662,0.2,1.091,0.384,1.622,0.597v-2.018c-0.189,0.09-0.96,0.397-1.622,0.597
			c-0.708,0.214-1.35,0.36-1.766,0.413C40.319,138.285,40.961,138.432,41.668,138.646z"/>
	</g>
</g>
<text transform="matrix(1 0 0 1 63.0684 136.3184)" font-family="'LucidaGrande-Bold'" font-size="5">11m</text>
<text transform="matrix(1 0 0 1 40.4175 242.7456)" font-family="'LucidaGrande-Bold'" font-size="5">1m</text>
<line fill="none" stroke="#FFFFFF" stroke-width="2" x1="37.94" y1="19.777" x2="38.24" y2="256.822"/>
<g>
	<g>
		<line fill="none" stroke="#000000" stroke-width="0.5" x1="40.22" y1="247.425" x2="45.334" y2="247.392"/>
		<path d="M46.512,246.872c-0.829-0.245-1.367-0.471-2.032-0.733l0.017,2.522c0.236-0.114,1.197-0.504,2.022-0.759
			c0.883-0.273,1.684-0.461,2.204-0.53C48.202,247.311,47.398,247.133,46.512,246.872z"/>
		<path d="M39.042,247.945c0.829,0.245,1.367,0.471,2.032,0.733l-0.017-2.522c-0.236,0.114-1.197,0.504-2.022,0.759
			c-0.883,0.273-1.684,0.461-2.204,0.53C37.353,247.506,38.156,247.684,39.042,247.945z"/>
	</g>
</g>
<g>
	<g>
		<line fill="none" stroke="#000000" stroke-width="0.5" x1="87.526" y1="138.116" x2="119.957" y2="151.659"/>
		<path d="M121.116,151.643c-0.6-0.494-0.967-0.872-1.425-1.322l-0.875,2.095c0.236-0.012,1.169,0.004,1.942,0.083
			c0.827,0.085,1.557,0.211,2.012,0.337C122.36,152.602,121.758,152.171,121.116,151.643z"/>
		<path d="M86.368,138.132c0.6,0.494,0.967,0.872,1.425,1.322l0.875-2.095c-0.236,0.012-1.169-0.004-1.942-0.083
			c-0.827-0.085-1.557-0.211-2.012-0.337C85.123,137.173,85.726,137.603,86.368,138.132z"/>
	</g>
</g>
<text transform="matrix(1 0 0 1 93.4297 138.5547)" font-family="'LucidaGrande-Bold'" font-size="5">9,15m</text>
<g>
	<g>
		<line fill="none" stroke="#000000" stroke-width="0.5" x1="126.349" y1="51.303" x2="126.668" y2="224.527"/>
		<path d="M127.132,225.589c0.223-0.745,0.429-1.229,0.667-1.826l-2.27,0.004c0.102,0.213,0.449,1.08,0.675,1.823
			c0.242,0.796,0.408,1.518,0.468,1.986C126.729,227.108,126.893,226.386,127.132,225.589z"/>
		<path d="M125.886,50.241c-0.223,0.745-0.429,1.229-0.667,1.826l2.27-0.004c-0.102-0.213-0.449-1.079-0.675-1.823
			c-0.242-0.796-0.408-1.518-0.468-1.986C126.288,48.722,126.125,49.444,125.886,50.241z"/>
	</g>
</g>
<text transform="matrix(1 0 0 1 132.4214 138.2354)" font-family="'LucidaGrande-Bold'" font-size="5">40,3m</text>
<g>
	<g>
		<line fill="none" stroke="#000000" stroke-width="0.5" x1="42.399" y1="48.893" x2="106.149" y2="48.893"/>
		<path d="M107.212,48.432c-0.744-0.225-1.228-0.432-1.825-0.671v2.27c0.214-0.102,1.081-0.447,1.825-0.671
			c0.796-0.241,1.518-0.405,1.986-0.464C108.73,48.836,108.008,48.672,107.212,48.432z"/>
		<path d="M41.336,49.354c0.744,0.225,1.228,0.432,1.825,0.671v-2.27c-0.214,0.102-1.081,0.447-1.825,0.671
			c-0.796,0.241-1.518,0.405-1.986,0.464C39.818,48.949,40.541,49.113,41.336,49.354z"/>
	</g>
</g>
<g>
	<g>
		<line fill="none" stroke="#000000" stroke-width="0.5" x1="42.149" y1="96.393" x2="58.149" y2="96.393"/>
		<path d="M59.212,95.932c-0.744-0.225-1.228-0.432-1.825-0.671v2.27c0.214-0.102,1.081-0.447,1.825-0.671
			c0.796-0.241,1.518-0.405,1.986-0.464C60.73,96.336,60.008,96.172,59.212,95.932z"/>
		<path d="M41.086,96.854c0.744,0.225,1.228,0.432,1.825,0.671v-2.27c-0.214,0.102-1.081,0.447-1.825,0.671
			c-0.796,0.241-1.518,0.405-1.986,0.464C39.568,96.449,40.291,96.613,41.086,96.854z"/>
	</g>
</g>
<text transform="matrix(1 0 0 1 44.1494 93.3926)" font-family="'LucidaGrande-Bold'" font-size="5">5,5m</text>
<text transform="matrix(1 0 0 1 395.8994 107.8926)"><tspan x="0" y="0" font-family="'LucidaGrande-Bold'" font-size="9">But</tspan><tspan x="0" y="8.4" font-family="'LucidaGrande'" font-size="7">7,3m x 2,4m</tspan></text>
<text transform="matrix(1 0 0 1 333.3994 148.3926)"><tspan x="0" y="0" font-family="'LucidaGrande-Bold'" font-size="6">Point de</tspan><tspan x="0" y="7.2" font-family="'LucidaGrande-Bold'" font-size="6">Penalty</tspan></text>
<g>
	<g>
		<line fill="none" stroke="#000000" stroke-width="0.5" x1="218.399" y1="140.393" x2="246.899" y2="158.393"/>
		<path d="M248.044,158.57c-0.509-0.587-0.807-1.021-1.184-1.542l-1.212,1.919c0.234,0.028,1.151,0.199,1.9,0.407
			c0.802,0.222,1.5,0.468,1.928,0.668C249.111,159.723,248.589,159.199,248.044,158.57z"/>
		<path d="M217.254,140.215c0.509,0.587,0.808,1.021,1.184,1.542l1.212-1.919c-0.235-0.028-1.152-0.199-1.901-0.407
			c-0.802-0.222-1.5-0.468-1.928-0.668C216.187,139.062,216.709,139.586,217.254,140.215z"/>
	</g>
</g>
<text transform="matrix(1 0 0 1 228.8994 144.3926)" font-family="'LucidaGrande-Bold'" font-size="5">9,15m</text>
<g>
	<g>
		<line fill="none" stroke="#000000" stroke-width="0.5" x1="49.899" y1="181.893" x2="49.899" y2="220.393"/>
		<path d="M50.361,221.456c0.225-0.744,0.432-1.228,0.671-1.825h-2.27c0.102,0.214,0.447,1.081,0.671,1.825
			c0.241,0.796,0.405,1.518,0.464,1.986C49.956,222.974,50.12,222.251,50.361,221.456z"/>
		<path d="M49.438,180.83c-0.225,0.744-0.432,1.228-0.671,1.825h2.27c-0.102-0.214-0.447-1.081-0.671-1.825
			c-0.241-0.796-0.405-1.518-0.464-1.986C49.843,179.312,49.679,180.034,49.438,180.83z"/>
	</g>
</g>
<text transform="matrix(1 0 0 1 54.0684 204.3184)" font-family="'LucidaGrande-Bold'" font-size="5">11m</text>
<g>
	<g>
		<line fill="none" stroke="#000000" stroke-width="0.5" x1="36.899" y1="13.893" x2="393.899" y2="13.893"/>
		<path d="M394.962,13.432c-0.744-0.225-1.228-0.432-1.824-0.671v2.27c0.214-0.102,1.08-0.447,1.824-0.671
			c0.797-0.241,1.519-0.405,1.987-0.464C396.48,13.836,395.759,13.672,394.962,13.432z"/>
		<path d="M35.836,14.354c0.744,0.225,1.228,0.432,1.825,0.671v-2.27c-0.214,0.102-1.081,0.447-1.825,0.671
			c-0.796,0.241-1.518,0.405-1.986,0.464C34.318,13.949,35.041,14.113,35.836,14.354z"/>
	</g>
</g>
<text transform="matrix(1 0 0 1 202.8994 10.3926)" font-family="'LucidaGrande-Bold'" font-size="6">90-120m</text>
<text transform="matrix(1 0 0 1 337.3994 67.3926)"><tspan x="0" y="0" font-family="'LucidaGrande-Bold'" font-size="7">Surface de</tspan><tspan x="0" y="8.4" font-family="'LucidaGrande-Bold'" font-size="7">réparation</tspan></text>
<g>
	<g>
		<line fill="none" stroke="#000000" stroke-width="0.5" x1="42.399" y1="159.393" x2="42.399" y2="172.393"/>
		<path d="M42.86,173.455c0.225-0.744,0.432-1.228,0.672-1.824h-2.271c0.102,0.214,0.447,1.08,0.672,1.824
			c0.24,0.797,0.404,1.519,0.464,1.987C42.456,174.974,42.62,174.252,42.86,173.455z"/>
		<path d="M41.938,158.33c-0.225,0.744-0.432,1.228-0.672,1.824h2.271c-0.102-0.214-0.447-1.08-0.672-1.824
			c-0.24-0.797-0.404-1.519-0.464-1.987C42.343,156.812,42.179,157.533,41.938,158.33z"/>
	</g>
</g>
<text transform="matrix(1 0 0 1 45.1494 167.8926)" font-family="'LucidaGrande-Bold'" font-size="5">5,5m</text>
<text transform="matrix(1 0 0 1 3.3994 161.8926)" font-family="'LucidaGrande-Bold'" font-size="6">45-90m</text>
</svg>
